<svg xmlns="http://www.w3.org/2000/svg" viewBox="0 0 32 32" fill="none">
  <rect width="32" height="32" rx="8" fill="#171717"/>
  <path d="M8 22V10h4.5c1.1 0 2 .3 2.7.8.7.5 1 1.3 1 2.2 0 .6-.2 1.1-.5 1.5-.3.4-.7.7-1.2.9.6.1 1.1.5 1.5.9.4.5.6 1 .6 1.7 0 1-.3 1.8-1 2.3-.7.5-1.7.8-2.8.8H8zm2.8-7.2h1.7c.5 0 .9-.1 1.2-.4.3-.3.4-.6.4-1s-.1-.7-.4-1c-.3-.2-.7-.4-1.2-.4h-1.7v2.8zm0 5h1.9c.6 0 1-.2 1.3-.5.3-.3.4-.7.4-1.1 0-.5-.2-.8-.5-1.1-.3-.3-.7-.4-1.3-.4h-1.8v3.1zM20.5 22.2c-.7 0-1.3-.3-1.7-.8-.4-.5-.6-1.2-.6-2v-5.2H21v5c0 .5.1.9.3 1.1.2.3.5.4.9.4.5 0 .9-.2 1.2-.5V14.2h2.8V22h-2.5l-.2-1c-.6.8-1.4 1.2-2.5 1.2z" fill="white"/>
</svg>
